<?xml version="1.0" encoding="utf-8"?>
<!-- Generator: Adobe Illustrator 16.0.0, SVG Export Plug-In . SVG Version: 6.00 Build 0)  -->
<!DOCTYPE svg PUBLIC "-//W3C//DTD SVG 1.1//EN" "http://www.w3.org/Graphics/SVG/1.1/DTD/svg11.dtd">
<svg version="1.1" id="Layer_1" xmlns="http://www.w3.org/2000/svg" xmlns:xlink="http://www.w3.org/1999/xlink" x="0px" y="0px"
	 width="500px" height="500px" viewBox="0 0 500 500" enable-background="new 0 0 500 500" xml:space="preserve">
<circle fill="#F1EA23" stroke="#FFF200" stroke-width="4" stroke-miterlimit="10" cx="250" cy="250" r="250"/>
<path stroke="#E7E515" stroke-miterlimit="10" d="M231.967,160.303c0,30.315-39.437,54.89-88.085,54.89
	c-48.649,0-88.086-24.575-88.086-54.89c0-30.314,39.438-36.037,88.086-36.037C192.53,124.267,231.967,129.989,231.967,160.303z"/>
<path stroke="#E7E515" stroke-miterlimit="10" d="M437.016,160.303c0,30.315-39.437,54.89-88.085,54.89s-88.086-24.575-88.086-54.89
	c0-30.314,39.438-36.037,88.086-36.037S437.016,129.988,437.016,160.303z"/>
<path fill="none" stroke="#000000" stroke-width="6" stroke-miterlimit="10" d="M223.268,152.771
	c7.466,9.711,14.056,11.567,24.57,11.476c6.668-0.058,19.342-2.066,22.711-9.836"/>
<path fill="none" stroke="#000000" stroke-width="4" stroke-miterlimit="10" d="M225.188,169.287
	c14.563,14.7,42.211,5.106,46.722-3.279"/>
<path stroke="#000000" stroke-width="4" stroke-miterlimit="10" d="M229.565,161.795c-0.46,3.923-1.512,7.444-1.512,11.371
	c7.377,0.425,14.498,2.161,21.962,2.564c11.785,0.637,12.904-2.918,16.35-13.192c-11.198,3.471-25.673,0.078-36.8,0.078"/>
<path fill="#FFFFFF" stroke="#000000" stroke-width="4" stroke-miterlimit="10" d="M215.631,327.106
	c11.743,6.007,37.593,7.156,50.929,7.738c25.479,1.111,46.95-2.386,70.074-11.839c33.578-13.726,63.666-33.233,92.264-53.928
	c7.756-5.614,14.018-10.306,18.816-17.723c2.514-3.882,3.151-8.527,5.496-12.287c2.087,27.012,3.994,59.797-1.979,86.349
	c-5.725,25.44-30.296,55.632-52.586,71.604c-15.108,10.825-32.057,21.555-50.364,27.876c-18.651,6.438-40.437,9.457-60.022,12.044
	c-20.363,2.69-39.672,2.979-60.162,3.281c23.352-7.825,24.125-33.377,22.162-54.252c-2.1-22.325-9.241-39.21-23.64-56.643"/>
<path fill="none" stroke="#000000" stroke-width="4" stroke-miterlimit="10" d="M248.708,390.953
	c27.893-0.088,58.097-6.941,85.814-13.54c16.437-3.913,32.192-12.516,52.978-26.913c14.456-10.012,28.552-23.114,39.794-36.592
	c15.335-18.389,23.711-53.06,25.917-74.84"/>
<path fill="#FFFFFF" stroke="#FFFFFF" stroke-miterlimit="10" d="M431.285,154.209c0,30.314-36.292,54.891-81.063,54.891
	c-44.769,0-83.222-18.379-83.222-48.693c0-3.969,16.584,39,86.968,39C419.685,199.407,431.285,143.16,431.285,154.209z"/>
<path fill="#FFFFFF" stroke="#FFFFFF" stroke-miterlimit="10" d="M226.024,154.209c0,30.314-36.292,54.89-81.063,54.89
	c-44.769,0-83.222-18.379-83.222-48.693c0-3.969,16.584,39,86.968,39C214.423,199.406,226.024,143.16,226.024,154.209z"/>
</svg>
