<?xml version="1.0" standalone="no"?>
<!DOCTYPE svg PUBLIC "-//W3C//DTD SVG 20010904//EN"
 "http://www.w3.org/TR/2001/REC-SVG-20010904/DTD/svg10.dtd">
<svg version="1.0" xmlns="http://www.w3.org/2000/svg"
 width="1572.000000pt" height="884.000000pt" viewBox="0 0 1572.000000 884.000000"
 preserveAspectRatio="xMidYMid meet">

<g transform="translate(0.000000,884.000000) scale(0.100000,-0.100000)"
fill="#000000" stroke="none">
<path d="M8105 7014 c-111 -26 -165 -81 -165 -169 0 -81 25 -110 149 -171 105
-51 126 -69 115 -98 -15 -40 -124 -31 -199 15 l-49 31 -38 -44 c-20 -23 -36
-47 -34 -53 1 -5 17 -20 35 -32 98 -66 253 -85 339 -41 61 31 92 83 92 155 0
74 -40 117 -157 169 -104 45 -113 51 -113 75 0 41 86 52 156 20 23 -10 45 -24
48 -30 12 -19 22 -13 62 35 l38 47 -30 24 c-54 44 -190 80 -249 67z"/>
<path d="M7433 6992 c-34 -10 -64 -19 -67 -22 -3 -3 -12 -91 -20 -194 -9 -104
-17 -190 -19 -192 -2 -2 -48 66 -103 153 -54 86 -102 160 -105 165 -6 9 -137
-18 -152 -32 -8 -7 302 -482 322 -494 8 -5 158 28 166 36 2 2 10 75 19 163 15
142 22 214 41 388 6 54 9 53 -82 29z"/>
<path d="M7630 6998 c1 -64 31 -552 34 -556 3 -2 37 -1 76 3 l70 7 -5 77 c-9
121 -25 417 -25 451 l0 30 -75 0 c-53 0 -75 -4 -75 -12z"/>
<path d="M8502 6668 c-103 -121 -188 -226 -190 -233 -2 -9 22 -22 68 -36 l71
-23 37 43 37 43 89 -34 90 -33 -3 -57 -2 -56 65 -22 c37 -12 72 -27 79 -34 6
-7 38 -31 69 -54 l56 -42 58 85 c49 73 60 83 76 74 16 -9 17 -18 11 -97 -13
-160 -16 -150 55 -200 35 -24 66 -41 69 -38 4 3 9 61 12 129 l6 122 56 6 c68
7 112 35 139 89 28 54 26 114 -5 166 -35 60 -261 223 -280 202 -7 -7 -72 -98
-145 -203 -73 -104 -138 -197 -146 -205 -12 -12 -14 11 -14 161 0 97 -3 230
-6 296 l-7 120 -79 26 -79 25 -187 -220z m218 -53 c0 -68 -3 -85 -15 -85 -12
0 -93 28 -103 36 -6 4 99 134 109 134 5 0 9 -38 9 -85z m558 -154 c22 -17 43
-39 47 -50 13 -41 -36 -88 -78 -75 -30 10 -87 47 -87 58 0 16 55 96 66 96 6 0
29 -13 52 -29z"/>
<path d="M6747 6784 l-58 -36 1 -172 c1 -94 -3 -170 -7 -169 -5 1 -73 36 -152
79 l-144 78 -55 -30 c-30 -16 -56 -34 -59 -41 -4 -10 253 -452 277 -477 5 -5
33 6 64 24 46 26 54 35 47 48 -5 10 -41 69 -80 132 -39 63 -71 118 -71 123 0
4 51 -19 113 -52 l112 -60 44 26 44 27 -7 118 c-4 65 -4 118 1 118 4 0 41 -56
82 -125 40 -69 76 -127 80 -129 10 -7 116 64 113 75 -3 11 -282 479 -285 479
-1 0 -28 -17 -60 -36z"/>
<path d="M9480 6120 c-111 -100 -204 -188 -207 -196 -5 -12 250 -305 265 -304
4 1 27 19 51 40 l43 40 -60 67 c-33 38 -72 79 -86 92 -33 31 -32 40 11 75 l35
30 73 -80 73 -79 42 41 41 40 -58 64 c-89 97 -88 94 -52 125 17 14 35 25 39
23 4 -2 42 -42 85 -90 43 -49 83 -88 90 -88 6 0 28 18 49 39 l39 40 -34 39
c-44 51 -197 222 -219 246 -17 18 -25 12 -220 -164z"/>
<path d="M5925 6158 l-47 -52 199 -192 c109 -106 203 -193 209 -194 6 0 66 59
134 131 l124 131 -49 46 -48 46 -74 -78 c-40 -43 -78 -76 -83 -74 -5 2 -77 67
-159 146 -82 78 -152 142 -154 142 -3 0 -26 -23 -52 -52z"/>
<path d="M5726 5904 c-45 -66 -52 -54 89 -151 55 -38 153 -106 218 -152 65
-46 119 -82 120 -80 57 78 77 108 77 116 0 6 -25 27 -56 47 -30 20 -132 91
-225 156 -94 66 -173 120 -177 120 -4 -1 -24 -26 -46 -56z"/>
<path d="M9813 5708 l-243 -130 31 -61 c17 -34 32 -63 33 -64 2 -2 65 31 142
71 76 41 140 73 142 71 2 -2 -37 -79 -87 -170 l-91 -166 31 -62 c17 -34 33
-64 35 -65 1 -2 51 22 111 53 59 32 172 91 250 132 l143 75 -31 61 c-17 34
-32 63 -34 65 -1 1 -65 -31 -141 -72 -76 -41 -140 -73 -143 -71 -2 2 38 79 87
170 l91 167 -32 64 c-17 35 -36 64 -42 63 -5 -1 -119 -60 -252 -131z"/>
<path d="M5515 5539 l-86 -170 248 -120 c136 -66 252 -121 257 -122 10 -2 64
96 65 118 1 6 -37 29 -84 53 l-85 42 44 93 43 94 -53 27 c-30 14 -56 26 -58
26 -2 0 -23 -40 -47 -90 -23 -49 -46 -90 -51 -90 -12 0 -88 39 -88 45 0 3 22
50 50 105 37 73 46 101 37 107 -6 4 -33 18 -60 30 l-47 22 -85 -170z"/>
<path d="M7725 5560 c-107 -9 -282 -42 -316 -60 -14 -8 -19 -19 -17 -38 4 -33
24 -34 138 -9 242 52 468 48 705 -13 206 -53 370 -138 497 -258 196 -185 259
-408 177 -631 -30 -82 -32 -96 -15 -110 28 -23 53 -3 79 62 39 97 50 164 45
268 -8 166 -72 301 -206 437 -248 253 -659 386 -1087 352z"/>
<path d="M7072 5489 c-49 -87 -49 -87 -99 -95 -26 -3 -56 -11 -65 -16 -30 -15
-21 -51 22 -93 l41 -40 -7 -66 c-8 -88 6 -99 83 -61 57 28 53 28 144 -11 30
-13 39 -14 54 -3 15 11 16 20 7 76 l-9 64 43 46 c66 71 58 91 -44 105 -52 7
-53 7 -82 66 -35 69 -61 77 -88 28z m60 -129 c12 -21 25 -30 42 -30 35 0 39
-14 11 -40 -19 -18 -22 -29 -18 -56 l6 -34 -34 14 c-29 12 -38 12 -60 0 -33
-16 -40 -10 -32 28 4 21 0 35 -16 52 -24 25 -19 36 15 36 16 0 29 10 39 30 19
37 26 37 47 0z"/>
<path d="M8060 5383 c-43 -22 -80 -76 -80 -117 0 -76 71 -141 143 -132 74 9
120 59 120 131 0 98 -98 162 -183 118z m92 -80 c36 -33 10 -93 -42 -93 -34 0
-50 17 -50 55 0 17 5 36 12 43 17 17 58 15 80 -5z"/>
<path d="M7591 5235 c-52 -14 -138 -46 -190 -72 -77 -37 -111 -62 -173 -123
-203 -201 -207 -449 -11 -652 70 -72 103 -84 127 -46 8 14 -2 30 -60 90 -39
40 -84 98 -100 128 -26 49 -29 65 -29 150 0 85 3 101 29 149 81 155 268 277
482 316 49 9 99 19 112 21 19 4 23 10 20 32 -3 25 -6 27 -58 29 -33 2 -93 -7
-149 -22z"/>
<path d="M7784 5136 c-55 -26 -108 -82 -125 -134 -8 -25 -15 -32 -28 -27 -69
28 -153 2 -190 -59 -24 -39 -31 -111 -13 -143 8 -13 5 -24 -13 -45 -31 -37
-37 -104 -33 -361 l5 -208 26 -27 27 -27 189 -3 189 -3 4 -73 c4 -92 40 -156
112 -201 l49 -30 400 -5 399 -5 29 -33 c35 -39 39 -91 9 -139 -25 -41 -67 -53
-195 -53 l-101 0 -114 75 -114 75 -539 0 c-594 0 -578 2 -617 -63 -29 -46 -29
-198 0 -244 39 -65 23 -63 617 -63 l538 0 112 75 113 75 125 0 c104 0 132 3
163 19 151 78 145 280 -10 346 -31 13 -96 15 -410 15 -335 0 -377 2 -408 18
-55 27 -80 74 -80 148 l0 64 60 0 c100 0 140 35 140 120 0 22 3 40 8 40 4 0
41 -9 82 -20 92 -24 126 -25 134 -4 3 9 6 98 6 199 0 150 -3 185 -15 195 -12
10 -31 8 -100 -9 -46 -11 -91 -21 -98 -21 -10 0 -16 16 -19 50 -3 29 -13 59
-24 71 -17 19 -17 21 0 47 76 117 67 236 -24 324 -75 72 -171 88 -266 44z
m197 -81 c43 -28 69 -78 69 -135 0 -90 -73 -162 -165 -162 -137 0 -214 160
-128 263 59 70 148 83 224 34z m-364 -167 c29 -27 31 -80 3 -108 -31 -31 -72
-30 -107 3 -31 27 -30 71 2 102 30 31 71 32 102 3z m403 -457 c0 -207 -2 -250
-14 -254 -28 -11 -520 -6 -533 5 -10 8 -13 66 -13 248 0 130 3 240 7 243 3 4
129 7 280 7 l273 0 0 -249z m230 -5 l0 -125 -67 20 c-38 10 -71 19 -75 19 -5
0 -8 40 -8 88 l0 89 63 15 c34 9 68 16 75 17 9 1 12 -30 12 -123z m-910 -902
l0 -117 -57 6 c-77 8 -93 28 -93 112 0 89 22 115 96 115 l54 0 0 -116z m825 1
l0 -110 -370 0 -370 0 -3 113 -3 112 373 -2 373 -3 0 -110z m192 57 c40 -26
73 -50 73 -54 0 -11 -144 -106 -166 -110 -18 -3 -19 5 -22 96 -1 55 0 106 3
114 7 18 23 12 112 -46z"/>
<path d="M7601 4596 c-8 -9 -11 -65 -9 -177 l3 -164 30 0 c20 0 69 25 148 74
123 78 139 99 100 133 -29 24 -236 148 -249 148 -6 0 -17 -6 -23 -14z m126
-132 l56 -35 -51 -35 c-28 -19 -56 -34 -62 -34 -6 0 -10 28 -10 70 0 39 2 70
5 70 3 0 31 -16 62 -36z"/>
<path d="M8376 5094 c-9 -8 -16 -19 -16 -24 0 -5 32 -40 70 -79 95 -94 133
-174 134 -281 1 -67 -3 -84 -33 -145 -22 -44 -57 -92 -94 -129 -47 -48 -57
-63 -53 -83 18 -69 143 33 213 173 37 76 38 81 38 183 0 95 -3 112 -28 166
-36 76 -99 158 -156 201 -50 39 -54 40 -75 18z"/>
<path d="M6777 5046 c-34 -35 -86 -217 -87 -303 0 -74 28 -193 65 -268 89
-185 263 -338 505 -442 120 -52 140 -57 164 -40 35 26 12 52 -72 82 -272 97
-481 283 -554 493 -19 55 -23 87 -23 177 1 101 4 117 34 194 25 62 31 89 24
100 -14 22 -38 25 -56 7z"/>
<path d="M8702 4429 c-49 -87 -49 -87 -99 -95 -26 -3 -56 -11 -65 -16 -30 -15
-21 -51 22 -93 l41 -40 -7 -65 c-9 -92 4 -101 86 -64 l62 27 54 -26 c43 -21
59 -25 74 -17 22 12 23 21 11 94 -8 48 -7 49 35 95 67 71 58 90 -49 105 -46 7
-48 9 -77 67 -35 69 -61 77 -88 28z m112 -163 l29 -7 -24 -25 c-16 -17 -22
-35 -21 -59 2 -33 2 -33 -26 -23 -16 6 -41 8 -58 4 -36 -9 -39 -7 -36 24 2 15
-6 38 -18 53 l-22 27 32 6 c21 5 36 16 47 37 l15 31 27 -31 c14 -17 39 -34 55
-37z"/>
<path d="M5414 4231 c-40 -17 -66 -62 -61 -104 7 -48 29 -74 75 -87 100 -27
174 98 98 169 -26 25 -80 35 -112 22z"/>
<path d="M10201 4214 c-60 -50 -46 -140 26 -170 66 -28 130 11 140 85 5 36 2
44 -30 76 -44 44 -91 48 -136 9z"/>
<path d="M8450 4108 c-14 -6 -65 -25 -115 -42 -81 -29 -90 -34 -93 -59 -5 -40
19 -44 102 -17 160 51 201 81 164 118 -14 14 -25 14 -58 0z"/>
</g>
</svg>
