<svg width="607" height="467.99999999999994" xmlns="http://www.w3.org/2000/svg" preserveAspectRatio="xMidYMid meet" version="1.0">

 <g>
  <title>Layer 1</title>
  <g id="svg_1" fill="#000000" transform="translate(0 884) scale(0.1 -0.1)">
   <path id="svg_2" d="m3247.80869,8556.87241c-111,-26 -165,-81 -165,-169c0,-81 25,-110 149,-171c105,-51 126,-69 115,-98c-15,-40 -124,-31 -199,15l-49,31l-38,-44c-20,-23 -36,-47 -34,-53c1,-5 17,-20 35,-32c98,-66 253,-85 339,-41c61,31 92,83 92,155c0,74 -40,117 -157,169c-104,45 -113,51 -113,75c0,41 86,52 156,20c23,-10 45,-24 48,-30c12,-19 22,-13 62,35l38,47l-30,24c-54,44 -190,80 -249,67z"/>
   <path id="svg_3" d="m2575.80869,8534.87241c-34,-10 -64,-19 -67,-22c-3,-3 -12,-91 -20,-194c-9,-104 -17,-190 -19,-192c-2,-2 -48,66 -103,153c-54,86 -102,160 -105,165c-6,9 -137,-18 -152,-32c-8,-7 302,-482 322,-494c8,-5 158,28 166,36c2,2 10,75 19,163c15,142 22,214 41,388c6,54 9,53 -82,29z"/>
   <path id="svg_4" d="m2772.80869,8540.87241c1,-64 31,-552 34,-556c3,-2 37,-1 76,3l70,7l-5,77c-9,121 -25,417 -25,451l0,30l-75,0c-53,0 -75,-4 -75,-12z"/>
   <path id="svg_5" d="m3644.80869,8210.87241c-103,-121 -188,-226 -190,-233c-2,-9 22,-22 68,-36l71,-23l37,43l37,43l89,-34l90,-33l-3,-57l-2,-56l65,-22c37,-12 72,-27 79,-34c6,-7 38,-31 69,-54l56,-42l58,85c49,73 60,83 76,74c16,-9 17,-18 11,-97c-13,-160 -16,-150 55,-200c35,-24 66,-41 69,-38c4,3 9,61 12,129l6,122l56,6c68,7 112,35 139,89c28,54 26,114 -5,166c-35,60 -261,223 -280,202c-7,-7 -72,-98 -145,-203c-73,-104 -138,-197 -146,-205c-12,-12 -14,11 -14,161c0,97 -3,230 -6,296l-7,120l-79,26l-79,25l-187,-220zm218,-53c0,-68 -3,-85 -15,-85c-12,0 -93,28 -103,36c-6,4 99,134 109,134c5,0 9,-38 9,-85zm558,-154c22,-17 43,-39 47,-50c13,-41 -36,-88 -78,-75c-30,10 -87,47 -87,58c0,16 55,96 66,96c6,0 29,-13 52,-29z"/>
   <path id="svg_6" d="m1889.80869,8326.87241l-58,-36l1,-172c1,-94 -3,-170 -7,-169c-5,1 -73,36 -152,79l-144,78l-55,-30c-30,-16 -56,-34 -59,-41c-4,-10 253,-452 277,-477c5,-5 33,6 64,24c46,26 54,35 47,48c-5,10 -41,69 -80,132c-39,63 -71,118 -71,123c0,4 51,-19 113,-52l112,-60l44,26l44,27l-7,118c-4,65 -4,118 1,118c4,0 41,-56 82,-125c40,-69 76,-127 80,-129c10,-7 116,64 113,75c-3,11 -282,479 -285,479c-1,0 -28,-17 -60,-36z"/>
   <path id="svg_7" d="m4622.80869,7662.87241c-111,-100 -204,-188 -207,-196c-5,-12 250,-305 265,-304c4,1 27,19 51,40l43,40l-60,67c-33,38 -72,79 -86,92c-33,31 -32,40 11,75l35,30l73,-80l73,-79l42,41l41,40l-58,64c-89,97 -88,94 -52,125c17,14 35,25 39,23c4,-2 42,-42 85,-90c43,-49 83,-88 90,-88c6,0 28,18 49,39l39,40l-34,39c-44,51 -197,222 -219,246c-17,18 -25,12 -220,-164z"/>
   <path id="svg_8" d="m1067.80869,7700.87241l-47,-52l199,-192c109,-106 203,-193 209,-194c6,0 66,59 134,131l124,131l-49,46l-48,46l-74,-78c-40,-43 -78,-76 -83,-74c-5,2 -77,67 -159,146c-82,78 -152,142 -154,142c-3,0 -26,-23 -52,-52z"/>
   <path id="svg_9" d="m868.80869,7446.87241c-45,-66 -52,-54 89,-151c55,-38 153,-106 218,-152c65,-46 119,-82 120,-80c57,78 77,108 77,116c0,6 -25,27 -56,47c-30,20 -132,91 -225,156c-94,66 -173,120 -177,120c-4,-1 -24,-26 -46,-56z"/>
   <path id="svg_10" d="m4955.80869,7250.87241l-243,-130l31,-61c17,-34 32,-63 33,-64c2,-2 65,31 142,71c76,41 140,73 142,71c2,-2 -37,-79 -87,-170l-91,-166l31,-62c17,-34 33,-64 35,-65c1,-2 51,22 111,53c59,32 172,91 250,132l143,75l-31,61c-17,34 -32,63 -34,65c-1,1 -65,-31 -141,-72c-76,-41 -140,-73 -143,-71c-2,2 38,79 87,170l91,167l-32,64c-17,35 -36,64 -42,63c-5,-1 -119,-60 -252,-131z"/>
   <path id="svg_11" d="m657.80869,7081.87241l-86,-170l248,-120c136,-66 252,-121 257,-122c10,-2 64,96 65,118c1,6 -37,29 -84,53l-85,42l44,93l43,94l-53,27c-30,14 -56,26 -58,26c-2,0 -23,-40 -47,-90c-23,-49 -46,-90 -51,-90c-12,0 -88,39 -88,45c0,3 22,50 50,105c37,73 46,101 37,107c-6,4 -33,18 -60,30l-47,22l-85,-170z"/>
   <path id="svg_12" d="m2867.80869,7102.87241c-107,-9 -282,-42 -316,-60c-14,-8 -19,-19 -17,-38c4,-33 24,-34 138,-9c242,52 468,48 705,-13c206,-53 370,-138 497,-258c196,-185 259,-408 177,-631c-30,-82 -32,-96 -15,-110c28,-23 53,-3 79,62c39,97 50,164 45,268c-8,166 -72,301 -206,437c-248,253 -659,386 -1087,352z"/>
   <path id="svg_13" d="m2214.80869,7031.87241c-49,-87 -49,-87 -99,-95c-26,-3 -56,-11 -65,-16c-30,-15 -21,-51 22,-93l41,-40l-7,-66c-8,-88 6,-99 83,-61c57,28 53,28 144,-11c30,-13 39,-14 54,-3c15,11 16,20 7,76l-9,64l43,46c66,71 58,91 -44,105c-52,7 -53,7 -82,66c-35,69 -61,77 -88,28zm60,-129c12,-21 25,-30 42,-30c35,0 39,-14 11,-40c-19,-18 -22,-29 -18,-56l6,-34l-34,14c-29,12 -38,12 -60,0c-33,-16 -40,-10 -32,28c4,21 0,35 -16,52c-24,25 -19,36 15,36c16,0 29,10 39,30c19,37 26,37 47,0z"/>
   <path id="svg_14" d="m3202.80869,6925.87241c-43,-22 -80,-76 -80,-117c0,-76 71,-141 143,-132c74,9 120,59 120,131c0,98 -98,162 -183,118zm92,-80c36,-33 10,-93 -42,-93c-34,0 -50,17 -50,55c0,17 5,36 12,43c17,17 58,15 80,-5z"/>
   <path id="svg_15" d="m2733.80869,6777.87241c-52,-14 -138,-46 -190,-72c-77,-37 -111,-62 -173,-123c-203,-201 -207,-449 -11,-652c70,-72 103,-84 127,-46c8,14 -2,30 -60,90c-39,40 -84,98 -100,128c-26,49 -29,65 -29,150c0,85 3,101 29,149c81,155 268,277 482,316c49,9 99,19 112,21c19,4 23,10 20,32c-3,25 -6,27 -58,29c-33,2 -93,-7 -149,-22z"/>
   <path id="svg_16" d="m2926.80869,6678.87241c-55,-26 -108,-82 -125,-134c-8,-25 -15,-32 -28,-27c-69,28 -153,2 -190,-59c-24,-39 -31,-111 -13,-143c8,-13 5,-24 -13,-45c-31,-37 -37,-104 -33,-361l5,-208l26,-27l27,-27l189,-3l189,-3l4,-73c4,-92 40,-156 112,-201l49,-30l400,-5l399,-5l29,-33c35,-39 39,-91 9,-139c-25,-41 -67,-53 -195,-53l-101,0l-114,75l-114,75l-539,0c-594,0 -578,2 -617,-63c-29,-46 -29,-198 0,-244c39,-65 23,-63 617,-63l538,0l112,75l113,75l125,0c104,0 132,3 163,19c151,78 145,280 -10,346c-31,13 -96,15 -410,15c-335,0 -377,2 -408,18c-55,27 -80,74 -80,148l0,64l60,0c100,0 140,35 140,120c0,22 3,40 8,40c4,0 41,-9 82,-20c92,-24 126,-25 134,-4c3,9 6,98 6,199c0,150 -3,185 -15,195c-12,10 -31,8 -100,-9c-46,-11 -91,-21 -98,-21c-10,0 -16,16 -19,50c-3,29 -13,59 -24,71c-17,19 -17,21 0,47c76,117 67,236 -24,324c-75,72 -171,88 -266,44zm197,-81c43,-28 69,-78 69,-135c0,-90 -73,-162 -165,-162c-137,0 -214,160 -128,263c59,70 148,83 224,34zm-364,-167c29,-27 31,-80 3,-108c-31,-31 -72,-30 -107,3c-31,27 -30,71 2,102c30,31 71,32 102,3zm403,-457c0,-207 -2,-250 -14,-254c-28,-11 -520,-6 -533,5c-10,8 -13,66 -13,248c0,130 3,240 7,243c3,4 129,7 280,7l273,0l0,-249zm230,-5l0,-125l-67,20c-38,10 -71,19 -75,19c-5,0 -8,40 -8,88l0,89l63,15c34,9 68,16 75,17c9,1 12,-30 12,-123zm-910,-902l0,-117l-57,6c-77,8 -93,28 -93,112c0,89 22,115 96,115l54,0l0,-116zm825,1l0,-110l-370,0l-370,0l-3,113l-3,112l373,-2l373,-3l0,-110zm192,57c40,-26 73,-50 73,-54c0,-11 -144,-106 -166,-110c-18,-3 -19,5 -22,96c-1,55 0,106 3,114c7,18 23,12 112,-46z"/>
   <path id="svg_17" d="m2743.80869,6138.87241c-8,-9 -11,-65 -9,-177l3,-164l30,0c20,0 69,25 148,74c123,78 139,99 100,133c-29,24 -236,148 -249,148c-6,0 -17,-6 -23,-14zm126,-132l56,-35l-51,-35c-28,-19 -56,-34 -62,-34c-6,0 -10,28 -10,70c0,39 2,70 5,70c3,0 31,-16 62,-36z"/>
   <path id="svg_18" d="m3518.80869,6636.87241c-9,-8 -16,-19 -16,-24c0,-5 32,-40 70,-79c95,-94 133,-174 134,-281c1,-67 -3,-84 -33,-145c-22,-44 -57,-92 -94,-129c-47,-48 -57,-63 -53,-83c18,-69 143,33 213,173c37,76 38,81 38,183c0,95 -3,112 -28,166c-36,76 -99,158 -156,201c-50,39 -54,40 -75,18z"/>
   <path id="svg_19" d="m1919.80869,6588.87241c-34,-35 -86,-217 -87,-303c0,-74 28,-193 65,-268c89,-185 263,-338 505,-442c120,-52 140,-57 164,-40c35,26 12,52 -72,82c-272,97 -481,283 -554,493c-19,55 -23,87 -23,177c1,101 4,117 34,194c25,62 31,89 24,100c-14,22 -38,25 -56,7z"/>
   <path id="svg_20" d="m3844.80869,5971.87241c-49,-87 -49,-87 -99,-95c-26,-3 -56,-11 -65,-16c-30,-15 -21,-51 22,-93l41,-40l-7,-65c-9,-92 4,-101 86,-64l62,27l54,-26c43,-21 59,-25 74,-17c22,12 23,21 11,94c-8,48 -7,49 35,95c67,71 58,90 -49,105c-46,7 -48,9 -77,67c-35,69 -61,77 -88,28zm112,-163l29,-7l-24,-25c-16,-17 -22,-35 -21,-59c2,-33 2,-33 -26,-23c-16,6 -41,8 -58,4c-36,-9 -39,-7 -36,24c2,15 -6,38 -18,53l-22,27l32,6c21,5 36,16 47,37l15,31l27,-31c14,-17 39,-34 55,-37z"/>
   <path id="svg_21" d="m556.80869,5773.87241c-40,-17 -66,-62 -61,-104c7,-48 29,-74 75,-87c100,-27 174,98 98,169c-26,25 -80,35 -112,22z"/>
   <path id="svg_22" d="m5343.80869,5756.87241c-60,-50 -46,-140 26,-170c66,-28 130,11 140,85c5,36 2,44 -30,76c-44,44 -91,48 -136,9z"/>
   <path id="svg_23" d="m3592.80869,5650.87241c-14,-6 -65,-25 -115,-42c-81,-29 -90,-34 -93,-59c-5,-40 19,-44 102,-17c160,51 201,81 164,118c-14,14 -25,14 -58,0z"/>
  </g>
 </g>
</svg>