<svg version="1.0" preserveAspectRatio="xMidYMid meet" xmlns="http://www.w3.org/2000/svg" viewBox="44.89368258859785 22.464 510.6656394453005 379.08" style="max-height: 500px" width="510.6656394453005" height="379.08">

 <g>
  <title>Layer 1</title>
  <defs>
   <path id="arcPath" d="m100,285 A200,200 0 0,1 500,285" fill="none" />
  </defs>
  <text font-family="dejavu sans, sans-serif" font-size="78" font-weight="800" letter-spacing="-6" fill="currentColor" id="svg_2">
   <textPath href="#arcPath" startOffset="50%" text-anchor="middle">FILMVISARNA</textPath>
  </text>
  <g transform="translate(0 884) scale(0.1 -0.1)" fill="currentColor" id="svg_1">
   <path d="m2867.80869,7102.87241c-107,-9 -282,-42 -316,-60c-14,-8 -19,-19 -17,-38c4,-33 24,-34 138,-9c242,52 468,48 705,-13c206,-53 370,-138 497,-258c196,-185 259,-408 177,-631c-30,-82 -32,-96 -15,-110c28,-23 53,-3 79,62c39,97 50,164 45,268c-8,166 -72,301 -206,437c-248,253 -659,386 -1087,352z" id="svg_12"/>
   <path d="m2214.80869,7031.87241c-49,-87 -49,-87 -99,-95c-26,-3 -56,-11 -65,-16c-30,-15 -21,-51 22,-93l41,-40l-7,-66c-8,-88 6,-99 83,-61c57,28 53,28 144,-11c30,-13 39,-14 54,-3c15,11 16,20 7,76l-9,64l43,46c66,71 58,91 -44,105c-52,7 -53,7 -82,66c-35,69 -61,77 -88,28zm60,-129c12,-21 25,-30 42,-30c35,0 39,-14 11,-40c-19,-18 -22,-29 -18,-56l6,-34l-34,14c-29,12 -38,12 -60,0c-33,-16 -40,-10 -32,28c4,21 0,35 -16,52c-24,25 -19,36 15,36c16,0 29,10 39,30c19,37 26,37 47,0z" id="svg_13"/>
   <path d="m3202.80869,6925.87241c-43,-22 -80,-76 -80,-117c0,-76 71,-141 143,-132c74,9 120,59 120,131c0,98 -98,162 -183,118zm92,-80c36,-33 10,-93 -42,-93c-34,0 -50,17 -50,55c0,17 5,36 12,43c17,17 58,15 80,-5z" id="svg_14"/>
   <path d="m2733.80869,6777.87241c-52,-14 -138,-46 -190,-72c-77,-37 -111,-62 -173,-123c-203,-201 -207,-449 -11,-652c70,-72 103,-84 127,-46c8,14 -2,30 -60,90c-39,40 -84,98 -100,128c-26,49 -29,65 -29,150c0,85 3,101 29,149c81,155 268,277 482,316c49,9 99,19 112,21c19,4 23,10 20,32c-3,25 -6,27 -58,29c-33,2 -93,-7 -149,-22z" id="svg_15"/>
   <path d="m2926.80869,6678.87241c-55,-26 -108,-82 -125,-134c-8,-25 -15,-32 -28,-27c-69,28 -153,2 -190,-59c-24,-39 -31,-111 -13,-143c8,-13 5,-24 -13,-45c-31,-37 -37,-104 -33,-361l5,-208l26,-27l27,-27l189,-3l189,-3l4,-73c4,-92 40,-156 112,-201l49,-30l400,-5l399,-5l29,-33c35,-39 39,-91 9,-139c-25,-41 -67,-53 -195,-53l-101,0l-114,75l-114,75l-539,0c-594,0 -578,2 -617,-63c-29,-46 -29,-198 0,-244c39,-65 23,-63 617,-63l538,0l112,75l113,75l125,0c104,0 132,3 163,19c151,78 145,280 -10,346c-31,13 -96,15 -410,15c-335,0 -377,2 -408,18c-55,27 -80,74 -80,148l0,64l60,0c100,0 140,35 140,120c0,22 3,40 8,40c4,0 41,-9 82,-20c92,-24 126,-25 134,-4c3,9 6,98 6,199c0,150 -3,185 -15,195c-12,10 -31,8 -100,-9c-46,-11 -91,-21 -98,-21c-10,0 -16,16 -19,50c-3,29 -13,59 -24,71c-17,19 -17,21 0,47c76,117 67,236 -24,324c-75,72 -171,88 -266,44zm197,-81c43,-28 69,-78 69,-135c0,-90 -73,-162 -165,-162c-137,0 -214,160 -128,263c59,70 148,83 224,34zm-364,-167c29,-27 31,-80 3,-108c-31,-31 -72,-30 -107,3c-31,27 -30,71 2,102c30,31 71,32 102,3zm403,-457c0,-207 -2,-250 -14,-254c-28,-11 -520,-6 -533,5c-10,8 -13,66 -13,248c0,130 3,240 7,243c3,4 129,7 280,7l273,0l0,-249zm230,-5l0,-125l-67,20c-38,10 -71,19 -75,19c-5,0 -8,40 -8,88l0,89l63,15c34,9 68,16 75,17c9,1 12,-30 12,-123zm-910,-902l0,-117l-57,6c-77,8 -93,28 -93,112c0,89 22,115 96,115l54,0l0,-116zm825,1l0,-110l-370,0l-370,0l-3,113l-3,112l373,-2l373,-3l0,-110zm192,57c40,-26 73,-50 73,-54c0,-11 -144,-106 -166,-110c-18,-3 -19,5 -22,96c-1,55 0,106 3,114c7,18 23,12 112,-46z" id="svg_16"/>
   <path d="m2743.80869,6138.87241c-8,-9 -11,-65 -9,-177l3,-164l30,0c20,0 69,25 148,74c123,78 139,99 100,133c-29,24 -236,148 -249,148c-6,0 -17,-6 -23,-14zm126,-132l56,-35l-51,-35c-28,-19 -56,-34 -62,-34c-6,0 -10,28 -10,70c0,39 2,70 5,70c3,0 31,-16 62,-36z" id="svg_17"/>
   <path d="m3518.80869,6636.87241c-9,-8 -16,-19 -16,-24c0,-5 32,-40 70,-79c95,-94 133,-174 134,-281c1,-67 -3,-84 -33,-145c-22,-44 -57,-92 -94,-129c-47,-48 -57,-63 -53,-83c18,-69 143,33 213,173c37,76 38,81 38,183c0,95 -3,112 -28,166c-36,76 -99,158 -156,201c-50,39 -54,40 -75,18z" id="svg_18"/>
   <path d="m1919.80869,6588.87241c-34,-35 -86,-217 -87,-303c0,-74 28,-193 65,-268c89,-185 263,-338 505,-442c120,-52 140,-57 164,-40c35,26 12,52 -72,82c-272,97 -481,283 -554,493c-19,55 -23,87 -23,177c1,101 4,117 34,194c25,62 31,89 24,100c-14,22 -38,25 -56,7z" id="svg_19"/>
   <path d="m3844.80869,5971.87241c-49,-87 -49,-87 -99,-95c-26,-3 -56,-11 -65,-16c-30,-15 -21,-51 22,-93l41,-40l-7,-65c-9,-92 4,-101 86,-64l62,27l54,-26c43,-21 59,-25 74,-17c22,12 23,21 11,94c-8,48 -7,49 35,95c67,71 58,90 -49,105c-46,7 -48,9 -77,67c-35,69 -61,77 -88,28zm112,-163l29,-7l-24,-25c-16,-17 -22,-35 -21,-59c2,-33 2,-33 -26,-23c-16,6 -41,8 -58,4c-36,-9 -39,-7 -36,24c2,15 -6,38 -18,53l-22,27l32,6c21,5 36,16 47,37l15,31l27,-31c14,-17 39,-34 55,-37z" id="svg_20"/>
   <path d="m556.80869,5773.87241c-40,-17 -66,-62 -61,-104c7,-48 29,-74 75,-87c100,-27 174,98 98,169c-26,25 -80,35 -112,22z" id="svg_21"/>
   <path d="m5343.80869,5756.87241c-60,-50 -46,-140 26,-170c66,-28 130,11 140,85c5,36 2,44 -30,76c-44,44 -91,48 -136,9z" id="svg_22"/>
   <path d="m3592.80869,5650.87241c-14,-6 -65,-25 -115,-42c-81,-29 -90,-34 -93,-59c-5,-40 19,-44 102,-17c160,51 201,81 164,118c-14,14 -25,14 -58,0z" id="svg_23"/>
  </g>
 </g>
</svg>